<?xml version="1.0" encoding="utf-8"?>
<!-- Generator: Adobe Illustrator 18.0.0, SVG Export Plug-In . SVG Version: 6.00 Build 0)  -->
<!DOCTYPE svg PUBLIC "-//W3C//DTD SVG 1.1//EN" "http://www.w3.org/Graphics/SVG/1.1/DTD/svg11.dtd">
<svg version="1.1" id="Ebene_1" xmlns="http://www.w3.org/2000/svg" xmlns:xlink="http://www.w3.org/1999/xlink" x="0px" y="0px"
	 viewBox="0 0 141.7 141.7" enable-background="new 0 0 141.7 141.7" xml:space="preserve">
<g>
	<path fill="#474A56" d="M132.3,38.7H96.5L79.1,20.8c0.9-1.5,1.5-3.2,1.5-5.1c0-5.3-4.3-9.7-9.7-9.7c-5.3,0-9.7,4.4-9.7,9.7
		c0,1.9,0.6,3.6,1.5,5.1L45.2,38.7H9.5c-2.5,0-4.6,2-4.6,4.6v87.8c0,2.5,2.1,4.6,4.6,4.6h122.8c2.5,0,4.6-2.1,4.6-4.6V43.3
		C136.9,40.8,134.8,38.7,132.3,38.7z M66,24c1.4,0.9,3.1,1.4,4.9,1.4c1.8,0,3.5-0.5,4.9-1.4l14.3,14.7H51.6L66,24z M127.7,126.5H14
		V47.9h113.7V126.5z"/>
	<path fill="#474A56" d="M43.7,84.5c6,0,10.8-4.8,10.8-10.8c0-6-4.8-10.8-10.8-10.8c-6,0-10.8,4.8-10.8,10.8
		C32.9,79.7,37.7,84.5,43.7,84.5z"/>
</g>
<g>
	<path fill="#474A56" d="M95.3,56.4h3.8c0.9,0,1.6-0.7,1.6-1.6c0-0.9-0.7-1.6-1.6-1.6h-3.8c-0.9,0-1.6,0.7-1.6,1.6
		C93.8,55.7,94.5,56.4,95.3,56.4z"/>
	<path fill="#474A56" d="M110.5,53.3h-3.8c-0.9,0-1.6,0.7-1.6,1.6c0,0.9,0.7,1.6,1.6,1.6h3.8c0.9,0,1.6-0.7,1.6-1.6
		C112.1,54,111.4,53.3,110.5,53.3z"/>
	<path fill="#474A56" d="M120.2,53.3h-2.1c-0.9,0-1.6,0.7-1.6,1.6c0,0.9,0.7,1.6,1.6,1.6h0.5v0.5c0,0.9,0.7,1.6,1.6,1.6
		c0.9,0,1.6-0.7,1.6-1.6v-2.1C121.8,54,121.1,53.3,120.2,53.3z"/>
	<path fill="#474A56" d="M120.2,88.3c-0.9,0-1.6,0.7-1.6,1.6V94c0,0.9,0.7,1.6,1.6,1.6c0.9,0,1.6-0.7,1.6-1.6v-4.1
		C121.8,89,121.1,88.3,120.2,88.3z"/>
	<path fill="#474A56" d="M120.2,75.9c-0.9,0-1.6,0.7-1.6,1.6v4.1c0,0.9,0.7,1.6,1.6,1.6c0.9,0,1.6-0.7,1.6-1.6v-4.1
		C121.8,76.6,121.1,75.9,120.2,75.9z"/>
	<path fill="#474A56" d="M120.2,63.6c-0.9,0-1.6,0.7-1.6,1.6v4.1c0,0.9,0.7,1.6,1.6,1.6c0.9,0,1.6-0.7,1.6-1.6v-4.1
		C121.8,64.3,121.1,63.6,120.2,63.6z"/>
	<path fill="#474A56" d="M120.2,100.6c-0.9,0-1.6,0.7-1.6,1.6v0.5h-0.5c-0.9,0-1.6,0.7-1.6,1.6c0,0.9,0.7,1.6,1.6,1.6h2.1
		c0.9,0,1.6-0.7,1.6-1.6v-2.1C121.8,101.3,121.1,100.6,120.2,100.6z"/>
	<path fill="#474A56" d="M89.2,56.4h-3.8c-0.9,0-1.6-0.7-1.6-1.6c0-0.9,0.7-1.6,1.6-1.6h3.8c0.9,0,1.6,0.7,1.6,1.6
		C90.7,55.7,90,56.4,89.2,56.4z"/>
	<path fill="#474A56" d="M73.9,53.3h3.8c0.9,0,1.6,0.7,1.6,1.6c0,0.9-0.7,1.6-1.6,1.6h-3.8c-0.9,0-1.6-0.7-1.6-1.6
		C72.4,54,73.1,53.3,73.9,53.3z"/>
	<path fill="#474A56" d="M64.2,53.3h2.1c0.9,0,1.6,0.7,1.6,1.6c0,0.9-0.7,1.6-1.6,1.6h-0.5v0.5c0,0.9-0.7,1.6-1.6,1.6
		c-0.9,0-1.6-0.7-1.6-1.6v-2.1C62.7,54,63.4,53.3,64.2,53.3z"/>
	<path fill="#474A56" d="M64.2,88.3c0.9,0,1.6,0.7,1.6,1.6V94c0,0.9-0.7,1.6-1.6,1.6c-0.9,0-1.6-0.7-1.6-1.6v-4.1
		C62.7,89,63.4,88.3,64.2,88.3z"/>
	<path fill="#474A56" d="M64.2,75.9c0.9,0,1.6,0.7,1.6,1.6v4.1c0,0.9-0.7,1.6-1.6,1.6c-0.9,0-1.6-0.7-1.6-1.6v-4.1
		C62.7,76.6,63.4,75.9,64.2,75.9z"/>
	<path fill="#474A56" d="M64.2,63.6c0.9,0,1.6,0.7,1.6,1.6v4.1c0,0.9-0.7,1.6-1.6,1.6c-0.9,0-1.6-0.7-1.6-1.6v-4.1
		C62.7,64.3,63.4,63.6,64.2,63.6z"/>
</g>
<path fill="#474A56" d="M108.7,85.1l-8.6,12L83.7,73.7l-17.9,27.8c0,0.1,0,0.1,0,0.2v0.5h0.5c0.9,0,1.6,0.7,1.6,1.6
	c0,0.9-0.7,1.6-1.6,1.6h-2.1c-0.3,0-0.6-0.1-0.8-0.3l0,0c0,0-33.8-8.2-39.3,15.3h96.5L108.7,85.1z M77.7,105.8h-3.8
	c-0.9,0-1.6-0.7-1.6-1.6c0-0.9,0.7-1.6,1.6-1.6h3.8c0.9,0,1.6,0.7,1.6,1.6C79.3,105.1,78.6,105.8,77.7,105.8z M89.2,105.8h-3.8
	c-0.9,0-1.6-0.7-1.6-1.6c0-0.9,0.7-1.6,1.6-1.6h3.8c0.9,0,1.6,0.7,1.6,1.6C90.7,105.1,90,105.8,89.2,105.8z M99.1,105.8h-3.8
	c-0.9,0-1.6-0.7-1.6-1.6c0-0.9,0.7-1.6,1.6-1.6h3.8c0.9,0,1.6,0.7,1.6,1.6C100.7,105.1,100,105.8,99.1,105.8z M110.5,105.8h-3.8
	c-0.9,0-1.6-0.7-1.6-1.6c0-0.9,0.7-1.6,1.6-1.6h3.8c0.9,0,1.6,0.7,1.6,1.6C112.1,105.1,111.4,105.8,110.5,105.8z"/>
<path fill="#474A56" d="M63.4,105.2c-0.5-0.3-0.8-0.8-0.8-1.3v-2.1c0-0.9,0.7-1.6,1.6-1.6c0.7,0,1.3,0.5,1.5,1.1"/>
<path fill="#474A56" d="M65.7,101.3c0,0.1,0,0.2,0.1,0.2"/>
</svg>
